<?xml version="1.0" encoding="utf-8"?>
<!-- Generator: Adobe Illustrator 24.3.0, SVG Export Plug-In . SVG Version: 6.00 Build 0)  -->
<svg version="1.1" id="Capa_1" xmlns="http://www.w3.org/2000/svg" xmlns:xlink="http://www.w3.org/1999/xlink" x="0px" y="0px"
	 viewBox="0 0 261.92 200" style="enable-background:new 0 0 261.92 200;" xml:space="preserve">
<style type="text/css">
	.st0{fill:none;}
	.st1{fill:#E85653;}
	.st2{fill:#EE8470;}
	.st3{fill:#EA6A5E;}
	.st4{fill:#F19884;}
	.st5{fill:#C9961A;}
	.st6{fill:#DCB86D;}
	.st7{fill:#EAD3A7;}
</style>
<symbol  id="Gerbera" viewBox="-23.27 -23.15 46.53 46.3">
	<rect x="-22.98" y="-23.09" class="st0" width="46.07" height="46.24"/>
	<g>
		<path class="st1" d="M-15.71,6.51c-4.54,1.12-5.53-0.01-5.53-0.01c0.6-1,1.56-1.79,2.69-2.41c2.43-0.12,5.25-0.45,7.1-0.69
			C-12.92,4.33-14.44,5.49-15.71,6.51z"/>
		<path class="st1" d="M23.09,1.18c0,0-2.65,0.5-5.34,0.62c-0.99-0.81-4.66-1.49-7.59-1.92c2.5-0.03,5.5-1.12,7.31-1.89
			C19.65-1.4,24.22,0.07,23.09,1.18z"/>
		<path class="st2" d="M7.04-0.59c0.01-0.1,0.03-0.21,0.03-0.31l0.08-0.06C7.46-0.72,7.81-0.53,8.2-0.4
			C7.87-0.44,7.56-0.48,7.3-0.51L7.04-0.59z"/>
		<path class="st1" d="M17.79,2.07c1.18,0.24,3.39,0.87,1.52,1.92c0,0-2.71,1.46-5.29,1.26c-1.86-1.26-3.57-2.28-3.76-2.4
			C13.42,2.97,16.98,2.25,17.79,2.07z"/>
		<path class="st1" d="M8.01,6.41l-0.79-0.8c3.1,2.01,7.81,3.69,9.97,4.4c0.85,0.98,2.59,3.24,0.1,2.74c0,0-2.02-0.5-3.44-1.05
			c-0.28-0.39-0.48-0.64-0.48-0.64L8.01,6.41z"/>
		<path class="st3" d="M-0.45,19.12c1.29-3.28,1.37-6.97,1.2-9.61l0.18,0.92c0.55,1.53,1.03,2.8,1.46,3.86
			c-0.54,3.33-2.43,13.82-3.82,6.08C-0.88,20.08-0.45,19.12-0.45,19.12z"/>
		<path class="st1" d="M-3.27,14.19c0.02,0.97,0.08,1.83,0.15,2.57c-0.35,0.9-0.93,1.68-1.87,1.7c0.29-0.64,0.57-1.39,0.83-2.16
			L-3.27,14.19z"/>
		<path class="st3" d="M-7.1,17.87c0.43-0.32,2.03-4.38,3.32-7.78l1.09-2.18c-0.41,1.96-0.56,3.81-0.58,5.45
			c-0.24,0.87-0.55,1.92-0.89,2.94c-0.26,0.77-0.54,1.51-0.83,2.16c-0.87,1.95-1.81,2.95-2.47,0.58l-0.13-1.28l0.09-0.18
			C-7.29,17.82-7.1,17.87-7.1,17.87z"/>
		<path class="st1" d="M-9.01,5.44c-0.72,0.73-1.3,1.47-1.79,2.2c-3.09,3.04-7.76,7.35-6.52,4.36c0,0,0.39-1.28,1.2-2.44
			c1.9-0.99,4.3-2.46,6.31-3.74L-9.01,5.44z"/>
		<path class="st3" d="M-16.87,1.47c-0.9,0.37-1.48,0.64-1.48,0.64c-3.86,1.95,4.67,0.68,9.48-0.13c-0.79,0.33-1.67,0.83-2.58,1.42
			c-1.85,0.24-4.67,0.57-7.1,0.69c-3.99,0.2-6.89-0.18-2.57-2.45C-19.9,1.69-18.29,1.59-16.87,1.47z"/>
		<path class="st2" d="M-10.26-0.67c0.29,0.01,0.56,0.02,0.81,0.02c-0.37,0.03-0.76,0.09-1.15,0.15L-10.26-0.67z"/>
		<path class="st1" d="M-10.26-0.67l-0.34,0.18c-2.23,0.4-4.73,1.33-6.27,1.96c-1.41,0.12-3.03,0.22-4.25,0.17
			c-1.97-0.07-2.9-0.5-0.23-1.8c0,0,2.34-0.6,4.91-1.03C-14.36-0.86-12.02-0.72-10.26-0.67z"/>
		<path class="st1" d="M-11.07-5.49c0,0.04,0.01,0.07,0.01,0.11c-1.68-0.38-3.61-0.61-5.3-0.75c-4.34-1.58-9.27-3.73-4.71-3.9
			c0,0,0.26,0.04,0.69,0.13c1.3,0.66,3,1.13,4.13,1.4C-14.64-7.44-12.71-6.36-11.07-5.49z"/>
		<path class="st3" d="M-16.25-8.5c-1.13-0.27-2.83-0.74-4.13-1.4c-0.97-0.49-1.72-1.09-1.84-1.78c0,0,1.33-0.37,2.62-0.09
			C-19.63-10.99-18.17-9.76-16.25-8.5z"/>
		<path class="st1" d="M-15.18-14.35c-3.21-0.34-1.29,1.71,1.69,4c-0.05,0.01-0.08,0.02-0.13,0.03c0,0-8.71-7-3.34-5.46
			c0,0,1.17,0.49,2.44,1.19c0.46,0.46,0.95,0.91,1.41,1.34C-14.32-13.93-15.18-14.35-15.18-14.35z"/>
		<path class="st3" d="M-6.63-8.86c-1.82-1.69-4.58-3.35-6.47-4.4c-0.46-0.42-0.95-0.88-1.41-1.34c-2.08-2.07-3.54-4.12,0.66-2.64
			c0,0,2.09,1.55,4.03,3.48c1.09,1.71,2.26,3.47,3.19,4.84C-6.64-8.89-6.63-8.87-6.63-8.86z"/>
		<path class="st1" d="M-0.94-9.02c-0.3,0.03-0.6,0.09-0.88,0.16c-0.7-3.31-1.79-5.81-2.83-7.58c-0.99-3.43-1.43-6.46,0.38-5.82
			c0,0,0.32,0.7,0.76,1.79C-3.51-17.17-1.79-11.58-0.94-9.02L-0.94-9.02z"/>
		<path class="st1" d="M2.53-8.5c1.96-6.08,2.18-9.37,1.96-11.12c0.94-1.57,3.8-6.01,3.71-1.68c0,0-0.27,3.27-1.04,6.08
			C5.1-12.69,3.21-9.51,2.61-8.47C2.59-8.48,2.56-8.49,2.53-8.5z"/>
		<path class="st3" d="M9.19-11.32c2.36-3.38,3.58-6.75,3.58-6.75c-0.02-0.02-0.04-0.04-0.06-0.06c1.81-1.41,5.21-3.62,2.59,1.93
			c-1.64,1.02-3.84,2.95-5.81,4.82L9.19-11.32z"/>
		<path class="st1" d="M18-13.3c0,0-2.36,2.74-4.64,3.89c1.85-2.12,3.24-4.3,3.92-5.45C18.37-15.27,19.72-15.52,18-13.3z"/>
		<path class="st2" d="M8.2-0.4C7.81-0.53,7.46-0.72,7.16-0.96C7.13-0.98,7.1-1,7.08-1.02c0.03-0.43,0.03-0.86-0.02-1.3
			C7.04-2.55,7-2.78,6.95-3.01l9.17-1.7c0.63-0.21,1.2-0.42,1.72-0.65c1.02,0,2.1,0.04,3.27,0.13c0,0,1.5,0.33-2.02,2.47
			c0,0-0.64,0.32-1.62,0.74c-1.81,0.77-4.81,1.86-7.31,1.89C9.45-0.23,8.78-0.32,8.2-0.4z"/>
		<path class="st2" d="M10.26,2.85c-0.01-0.01-0.03-0.01-0.03-0.01L6.41,1.65c0.31-0.68,0.52-1.42,0.62-2.19
			C7.12-0.53,7.21-0.52,7.3-0.51C7.56-0.48,7.87-0.44,8.2-0.4c0.58,0.08,1.25,0.17,1.96,0.27c2.93,0.43,6.6,1.11,7.59,1.92
			c0.1,0.08,0.17,0.16,0.21,0.24c0,0-0.06,0.01-0.18,0.04C16.98,2.25,13.42,2.97,10.26,2.85z"/>
		<path class="st4" d="M6.65,5.22L5.11,3.89C5.07,3.84,5.03,3.8,4.99,3.75c0.59-0.61,1.07-1.32,1.42-2.11l3.82,1.19
			c0,0,0.01,0.01,0.03,0.01c0.2,0.12,1.9,1.14,3.76,2.4c3.08,2.08,6.57,4.8,4.33,5.13c0,0-0.44-0.13-1.16-0.37
			c-2.16-0.71-6.87-2.39-9.97-4.4C7.02,5.48,6.83,5.35,6.65,5.22z"/>
		<path class="st2" d="M4.97,3.77l0.14,0.12l1.54,1.33l1.36,1.18l5.36,4.66c0,0,0.2,0.26,0.48,0.64c1.06,1.46,3.44,4.91,1.85,4.44
			c0,0-4.81-0.79-7.92-5.63L4.18,4.47C4.46,4.25,4.73,4.02,4.97,3.77z"/>
		<path class="st3" d="M2.92,5.24c0.45-0.21,0.87-0.47,1.26-0.77l3.59,6.05c0,0,4.13,11.51,0.67,7.99c0,0-1.79-1.22-2.57-2.92
			C6.04,14.04,3.97,8.11,2.92,5.24z"/>
		<path class="st2" d="M0.75,9.51C0.6,7.4,0.3,5.97,0.3,5.97L0.09,5.92c0.17,0,0.35-0.01,0.53-0.03c0.71-0.07,1.39-0.26,2.02-0.52
			c0.11,0.38,0.25,0.9,0.41,1.52c0.71,3.03,1.62,6.67,2,8.18c0.43,2.08,0.65,3.67,0.34,3.76c0,0-0.25,2.32-3-4.55
			c-0.42-1.06-0.9-2.33-1.46-3.86L0.75,9.51z"/>
		<path class="st4" d="M-3.27,13.37c0.02-1.64,0.17-3.49,0.58-5.45c0.15-0.75,0.35-1.51,0.58-2.28c0.7,0.21,1.44,0.3,2.2,0.28
			L0.3,5.97c0,0,0.31,1.43,0.45,3.53c0.18,2.64,0.09,6.33-1.2,9.61c0,0-0.43,0.96-0.99,1.24c-0.38,0.19-0.82,0.07-1.24-0.85
			c0,0-0.26-1.05-0.43-2.75c-0.08-0.75-0.14-1.61-0.15-2.57C-3.28,13.93-3.27,13.65-3.27,13.37z"/>
		<path class="st2" d="M-3.51,5.06c0.44,0.24,0.9,0.43,1.39,0.58C-2.35,6.25-3,8.05-3.78,10.1c-1.29,3.4-2.88,7.45-3.32,7.78
			c0,0-0.2-0.05-0.41-0.29c-0.5-0.54-1.07-2.06,0.55-6.18c0,0,0.26-0.78,0.68-1.79C-5.2,7.83-4.3,6.2-3.82,5.31
			C-3.71,5.21-3.62,5.13-3.51,5.06z"/>
		<path class="st2" d="M-5.14,3.93c0.02-0.01,0.04-0.02,0.05-0.03c0.44,0.42,0.92,0.79,1.44,1.09c-0.05,0.09-0.11,0.2-0.17,0.32
			C-4.3,6.2-5.2,7.83-6.28,9.62c-2.33,3.88-5.48,8.47-6.9,7.76c0,0-0.97-1.51,1.23-3.84c0,0,0.01-0.02,0.03-0.05
			C-9.7,11.51-6.17,5.67-5.14,3.93z"/>
		<path class="st4" d="M-8.56,5.02c1.59-1.03,2.7-1.79,2.7-1.79c0-0.07-0.01-0.12-0.01-0.19c0.23,0.3,0.48,0.58,0.75,0.84
			C-5.12,3.9-5.13,3.92-5.14,3.93c-1.03,1.73-4.56,7.57-6.78,9.55c-0.51,0.46-0.94,0.71-1.27,0.67c0,0,0.12-3.14,2.38-6.51
			c0.49-0.73,1.08-1.48,1.79-2.2C-8.87,5.3-8.71,5.16-8.56,5.02z"/>
		<path class="st2" d="M-8.87,1.98C-8,1.83-7.25,1.7-6.72,1.61C-6.48,2.12-6.2,2.6-5.86,3.04c0,0.06,0.01,0.12,0.01,0.19
			c0,0-1.12,0.76-2.7,1.79c-0.39,0.26-0.81,0.53-1.25,0.81c-2,1.28-4.4,2.75-6.31,3.74c-2.61,1.35-4.27,1.79-2.65-0.48
			c0,0,1.29-1.16,3.05-2.58c1.27-1.02,2.8-2.18,4.26-3.12C-10.54,2.81-9.66,2.31-8.87,1.98z"/>
		<path class="st2" d="M-6.72,1.61C-7.25,1.7-8,1.83-8.87,1.98c-4.81,0.81-13.34,2.07-9.48,0.13c0,0,0.58-0.27,1.48-0.64
			c1.54-0.63,4.04-1.56,6.27-1.96c0.39-0.07,0.78-0.12,1.15-0.15c0.67,0.02,1.2,0.02,1.53,0.02c0.21,0.03,0.4,0.07,0.58,0.12
			C-7.23,0.24-7.02,0.95-6.72,1.61z"/>
		<path class="st3" d="M-7.4-2.29c-0.04,0.48-0.04,0.98,0.01,1.48c0,0.01,0,0.02,0,0.03c-0.06,0.05-0.11,0.1-0.18,0.15
			c0,0-0.13,0-0.36,0c-0.33,0-0.86,0-1.53-0.02c-0.25,0-0.53-0.01-0.81-0.02c-1.76-0.06-4.1-0.19-6.19-0.52
			c-2.38-0.38-4.43-1-4.9-2.04c0,0-3.08-1.89,0.83-1.7c2.96,0.96,9.76,1.92,12.53,2.28C-7.76-2.53-7.56-2.41-7.4-2.29z"/>
		<path class="st2" d="M-10.71-5.3c1.8,0.95,3.16,1.61,3.16,1.61c0.11-0.03,0.19-0.06,0.29-0.09c0.04,0.04,0.08,0.08,0.12,0.13
			c-0.1,0.36-0.17,0.72-0.22,1.1c-0.17-0.02-0.38-0.05-0.63-0.08c-2.78-0.37-9.57-1.32-12.53-2.28c-1.56-0.5-2.06-1.01-0.34-1.42
			c0,0,2,0.01,4.49,0.22c1.7,0.14,3.62,0.37,5.3,0.75C-10.95-5.36-10.83-5.33-10.71-5.3z"/>
		<path class="st2" d="M-6.43-5.38c-0.28,0.49-0.5,1-0.67,1.55C-7.15-3.81-7.21-3.8-7.26-3.78c-0.09,0.03-0.18,0.06-0.29,0.09
			c0,0-1.36-0.65-3.16-1.61c-0.12-0.06-0.24-0.13-0.36-0.19c-1.64-0.87-3.56-1.95-5.18-3.01c-1.92-1.26-3.38-2.48-3.36-3.27
			c0.01-0.36,0.31-0.63,1.04-0.77c0,0,2.93,1.26,5.94,2.84c2.12,1.57,4.55,3.15,6.03,4.09C-6.54-5.53-6.48-5.46-6.43-5.38z"/>
		<path class="st4" d="M-15.18-14.35c0,0,0.86,0.42,2.08,1.1c1.89,1.05,4.65,2.71,6.47,4.4c0.03,0.03,0.05,0.05,0.08,0.07
			c0.54,0.79,0.99,1.44,1.28,1.87C-5.7-6.49-6.07-6-6.38-5.47C-6.45-5.52-6.52-5.56-6.6-5.61c-1.48-0.94-3.91-2.53-6.03-4.09
			c-0.29-0.22-0.58-0.43-0.86-0.65C-16.47-12.64-18.39-14.69-15.18-14.35z"/>
		<path class="st2" d="M-4.01-7.94C-4.47-7.64-4.89-7.3-5.27-6.92c-0.29-0.42-0.74-1.07-1.28-1.87c-0.03-0.04-0.06-0.08-0.09-0.13
			c-0.93-1.37-2.1-3.12-3.19-4.84c-2.75-4.34-4.92-8.39-1.1-5.08c0,0,2.34,2.44,4.3,5.2c1.02,2.26,2.09,4.41,2.59,5.41
			C-4.02-8.13-4.01-8.03-4.01-7.94z"/>
		<path class="st2" d="M-3.91-8c-0.03-0.06-0.07-0.14-0.11-0.23c-0.5-1-1.57-3.15-2.59-5.41c-2-4.41-3.82-9.18-0.84-6.36
			c0,0,1.35,1.08,2.8,3.55c1.04,1.77,2.13,4.27,2.83,7.58C-2.58-8.69-3.28-8.39-3.91-8z"/>
		<path class="st3" d="M0.37-9.46C0.33-9.31,0.28-9.17,0.23-9.03c-0.38-0.02-0.77-0.03-1.17,0.02c-0.85-2.56-2.57-8.15-2.57-11.46
			c0-1.72,0.46-2.82,1.77-2.54c0,0,1.85,4.14,2.37,8.43C0.33-12.55,0.33-10.61,0.37-9.46z"/>
		<path class="st2" d="M2.53-8.5c-0.68-0.28-1.4-0.46-2.15-0.52c0-0.13-0.01-0.27-0.02-0.43c-0.04-1.15-0.04-3.09,0.26-5.13
			c0.38-2.65,1.25-5.47,3.16-6.91c0,0,0.52,0.36,0.71,1.87C4.71-17.87,4.49-14.58,2.53-8.5z"/>
		<path class="st4" d="M9.19-11.32c-0.17,0.24-0.34,0.48-0.52,0.72C6.94-8.93,5.5-7.44,4.95-6.85C4.28-7.54,3.48-8.09,2.61-8.47
			c0.6-1.04,2.49-4.22,4.55-6.76c2.05-2.52,4.26-4.4,5.55-2.91c0.02,0.02,0.04,0.04,0.06,0.06C12.78-18.08,11.55-14.7,9.19-11.32z"
			/>
		<path class="st2" d="M6.4-4.71c-0.37-0.8-0.86-1.53-1.46-2.14c0.56-0.59,2-2.08,3.72-3.75c0.27-0.26,0.54-0.52,0.82-0.79
			c1.98-1.87,4.18-3.8,5.81-4.82c1.6-1,2.66-1.13,2.44,0.52c0,0-0.16,0.31-0.47,0.84c-0.68,1.15-2.06,3.33-3.92,5.45
			c-0.99,1.13-2.11,2.24-3.33,3.17C8.53-5.62,7.25-5.06,6.42-4.69L6.4-4.71z"/>
		<path class="st3" d="M6.95-3.01C6.84-3.6,6.65-4.16,6.41-4.69c0,0,0,0,0.01,0c0.83-0.37,2.11-0.93,3.61-1.55
			c5.06-2.08,12.5-4.76,12.51-2.53c0,0-1.06,1.84-4.7,3.41c-0.52,0.23-1.1,0.44-1.72,0.65L6.95-3.01z"/>
		<path class="st1" d="M2.7,5.35c0.08-0.03,0.15-0.07,0.23-0.11c1.04,2.87,3.12,8.8,2.95,10.35C5.83,16,5.64,16.11,5.23,15.78
			c0,0-0.07-0.27-0.18-0.71c-0.38-1.51-1.29-5.15-2-8.18C2.92,6.35,2.8,5.83,2.7,5.35z"/>
		<path d="M7.04-0.59c0,0.02,0,0.03-0.01,0.05c-0.1,0.77-0.31,1.5-0.62,2.19c-0.36,0.78-0.84,1.5-1.42,2.11
			c0,0.01-0.01,0.01-0.02,0.02c-0.24,0.25-0.51,0.48-0.79,0.7c-0.39,0.3-0.81,0.56-1.26,0.77C2.85,5.28,2.77,5.32,2.7,5.35
			C2.68,5.36,2.66,5.36,2.64,5.37C2.01,5.64,1.33,5.82,0.62,5.89C0.44,5.91,0.26,5.92,0.09,5.92c-0.76,0.02-1.5-0.07-2.2-0.28
			c0,0-0.01,0-0.02,0C-2.61,5.49-3.07,5.3-3.51,5.06C-3.56,5.04-3.6,5.01-3.64,4.99c-0.52-0.3-1.01-0.67-1.44-1.09
			c-0.01,0-0.02-0.01-0.02-0.02c-0.27-0.26-0.52-0.54-0.75-0.84C-6.2,2.6-6.48,2.12-6.72,1.61c-0.3-0.65-0.51-1.36-0.62-2.11
			c-0.01-0.09-0.03-0.18-0.04-0.27c0-0.01,0-0.02,0-0.03c-0.05-0.5-0.05-1-0.01-1.48c0.01-0.09,0.02-0.18,0.04-0.27
			c0.05-0.37,0.12-0.74,0.22-1.1c0.01-0.06,0.03-0.12,0.05-0.18c0.17-0.54,0.39-1.06,0.67-1.55c0.02-0.03,0.03-0.06,0.05-0.09
			C-6.07-6-5.7-6.49-5.27-6.92c0.38-0.38,0.8-0.72,1.26-1.01C-3.98-7.96-3.95-7.98-3.91-8c0.63-0.39,1.33-0.69,2.09-0.86
			c0.29-0.07,0.58-0.12,0.88-0.16h0c0.39-0.04,0.78-0.04,1.17-0.02c0.05,0,0.1,0,0.16,0.01C1.14-8.96,1.86-8.79,2.53-8.5
			c0.03,0.01,0.05,0.02,0.08,0.03c0.87,0.38,1.67,0.93,2.33,1.62c0.6,0.61,1.09,1.34,1.46,2.14c0,0.01,0.01,0.01,0.01,0.02
			C6.65-4.16,6.84-3.6,6.95-3.01C7-2.78,7.04-2.55,7.06-2.31c0.05,0.44,0.05,0.87,0.02,1.3c0,0.04,0,0.08-0.01,0.12
			C7.07-0.79,7.05-0.69,7.04-0.59z"/>
		<g>
			<polygon class="st5" points="6.83,-1.34 5.92,-2.53 6.39,-3.98 5.69,-5.08 4.52,-5.72 3.51,-6.32 2.97,-7.81 1.68,-8.09 
				0.61,-7.85 -0.13,-7.53 -1.42,-7.92 -2.5,-7.19 -4.01,-7.38 -4.74,-6.23 -5.59,-5.33 -6.2,-4.25 -6.94,-3.16 -6.82,-2.1 
				-6.67,-1.34 -6.89,-0.01 -6.3,1.16 -5.61,2.18 -5.18,3.42 -4.06,4.05 -2.85,4.33 -1.8,4.9 -0.85,5.06 -0.13,4.84 1.12,4.99 
				2.36,4.81 3.74,4.68 4.37,3.43 5.28,2.61 6.3,1.74 6.63,0.47 6.24,-0.62 			"/>
		</g>
		<path class="st6" d="M4.54-1.34c0-2.58-2.09-4.67-4.67-4.67c-2.58,0-4.67,2.09-4.67,4.67c0,2.58,2.09,4.67,4.67,4.67
			C2.45,3.33,4.54,1.24,4.54-1.34z"/>
		<path class="st7" d="M2.97-1.34c0-1.71-1.39-3.1-3.1-3.1c-1.71,0-3.1,1.39-3.1,3.1c0,1.71,1.39,3.1,3.1,3.1
			C1.58,1.76,2.97,0.37,2.97-1.34z"/>
		<polygon class="st6" points="4.92,0.04 4.48,0.81 4.92,1.58 5.8,1.58 6.25,0.81 5.8,0.04 		"/>
		<polygon class="st6" points="3.73,-4.51 3.29,-3.74 3.73,-2.97 4.62,-2.97 5.06,-3.74 4.62,-4.51 		"/>
		<polygon class="st6" points="0.17,-4.11 -0.27,-3.34 0.17,-2.58 1.06,-2.58 1.5,-3.34 1.06,-4.11 		"/>
		<polygon class="st6" points="-0.62,0.83 -1.06,1.6 -0.62,2.37 0.27,2.37 0.71,1.6 0.27,0.83 		"/>
		<polygon class="st6" points="-2.54,3.18 -2.98,3.95 -2.54,4.72 -1.65,4.72 -1.21,3.95 -1.65,3.18 		"/>
		<polygon class="st6" points="-5.51,1.2 -5.95,1.97 -5.51,2.74 -4.62,2.74 -4.18,1.97 -4.62,1.2 		"/>
		<polygon class="st6" points="-5.31,-2.95 -5.75,-2.18 -5.31,-1.42 -4.42,-1.42 -3.98,-2.18 -4.42,-2.95 		"/>
		<polygon class="st6" points="-5.94,-3.37 -6.38,-2.6 -5.94,-1.83 -5.05,-1.83 -4.61,-2.6 -5.05,-3.37 		"/>
		<polygon class="st6" points="-4.48,-5.1 -4.92,-4.33 -4.48,-3.57 -3.6,-3.57 -3.15,-4.33 -3.6,-5.1 		"/>
		<polygon class="st6" points="-1.32,-3.91 -1.76,-3.15 -1.32,-2.38 -0.43,-2.38 0.01,-3.15 -0.43,-3.91 		"/>
		<polygon class="st6" points="0.46,-0.95 0.02,-0.18 0.46,0.58 1.35,0.58 1.79,-0.18 1.35,-0.95 		"/>
		<polygon class="st6" points="2.44,-3.72 2,-2.95 2.44,-2.18 3.33,-2.18 3.77,-2.95 3.33,-3.72 		"/>
		<polygon class="st6" points="2.24,0.64 1.8,1.4 2.24,2.17 3.13,2.17 3.57,1.4 3.13,0.64 		"/>
	</g>
</symbol>
<use xlink:href="#Gerbera"  width="46.53" height="46.3" x="-23.27" y="-23.15" transform="matrix(4.2253 0 0 -4.2253 127.3136 99.8172)" style="overflow:visible;"/>
</svg>
