<?xml version="1.0" encoding="utf-8"?>
<!-- Generator: Adobe Illustrator 24.3.0, SVG Export Plug-In . SVG Version: 6.00 Build 0)  -->
<svg version="1.1" id="Capa_1" xmlns="http://www.w3.org/2000/svg" xmlns:xlink="http://www.w3.org/1999/xlink" x="0px" y="0px"
	 viewBox="0 0 237.14 200" style="enable-background:new 0 0 237.14 200;" xml:space="preserve">
<style type="text/css">
	.st0{fill:none;}
	.st1{fill:#EFA515;stroke:#000000;stroke-width:0;}
	.st2{fill:#6A3018;}
	.st3{fill:#FECA31;}
	.st4{fill:#FFFFFF;}
</style>
<symbol  id="Mariposa" viewBox="-39.78 -36.16 79.56 72.07">
	<g>
		<rect x="-39.65" y="-35.85" class="st0" width="79.3" height="71.69"/>
		<g>
			<path d="M0.02-24.42c1.07,0,1.94,6.56,1.94,14.66c0,8.09-0.87,14.65-1.94,14.65c-1.07,0-1.94-6.56-1.94-14.65
				C-1.92-17.86-1.05-24.42,0.02-24.42z"/>
			<g>
				<path class="st1" d="M-1.7-0.85c0,0-3.26,18.63-29.52,35.28c0,0-11.85,6.76-7.28-11.23c0,0,3.14-5.6,1.79-13.16
					c0,0-0.93-7.99,2.74-10.06c0,0,3.35-2.44,0-4.57c0,0-6.7-5.79-4.27-14.32c0,0,0.53-3.89,2.74-4.27c0,0,0.08-2.71,1.83-3.35
					c0,0,0.59-2.33,2.74-2.13c0,0,0.93-4.02,4.57-3.35c0,0,0.91-1.52,3.35-1.22c0,0,2.74-2.74,5.49-0.61
					c0,0,15.24,10.97,14.02,17.98C-3.49-15.86,1.35-10.3-1.7-0.85z"/>
				<path class="st2" d="M-1.66-1.41c0,0-5.33,24.38-34.21,36.72c0,0-6.08-1.85-2.88-11.91c0,0,3-4.09,2.2-12.32
					c0,0-1.71-9.66,3.71-12.11c0,0,2.34-1.71-2.8-6.17c0,0-7.39-11.92,0.15-15.98c0,0,0.59-4.83,4.42-5.45c0,0,2-4.91,4.86-3.32
					c0,0,1.73-2.46,3.1-1.09c0,0,2.5-4.05,7.07,0.06c0,0-29.66,10.69-13.66,27.14c0,0,3.66,2.74-0.91,9.6c0,0-2.29,3.2-1.37,8.69
					c0,0,0.46,10.06-4.12,14.63c0,0-2.74,5.94,2.74,4.57C-33.35,31.66-17.66,29.68-1.66-1.41z"/>
				<path class="st3" d="M-2.65-4.68c0,0-2.38,12.07-17.55,21.21c0,0-7.31,4.02-4.57-6.77c0,0,1.83-3.29,1.28-7.86
					c0,0-0.91-4.94,1.64-6.04c0,0,2.01-1.46,0-2.74c0,0-4.02-3.48-2.56-8.59c0,0,0-2.38,1.64-2.56c0,0-0.36-1.65,1.1-2.01
					c0,0,0-1.46,1.65-1.28c0,0,0.18-2.38,2.75-2.01c0,0,0.55-0.92,2.01-0.73c0,0,1.65-1.64,3.29-0.37c0,0,9.14,6.58,8.41,10.79
					C-3.56-13.64-0.82-10.35-2.65-4.68z"/>
				<g>
					<path d="M-0.93-6.61c0,0-17.07,13.11-18.89,19.81c0,0-4.57,18.59-16.76,22.25l-0.23,0.39c12.19-3.66,16.76-22.25,16.76-22.25
						C-18.23,6.89-1.16-6.21-1.16-6.21L-0.93-6.61z"/>
					<path d="M-19.01,11.2c0,0-15.14,4.74-16.97,2.3l-0.23,0.4c1.83,2.44,16.46-2.13,16.46-2.13L-19.01,11.2z"/>
					<path d="M-21.35,17.16c0,0-10.51,5.79-16.3,3.96l-0.23,0.4c5.79,1.83,16.3-3.96,16.3-3.96L-21.35,17.16z"/>
					<path d="M-23.79,22.96c0,0-11.88,10.36-15.85,7.92v0.33c3.96,2.44,15.62-7.85,15.62-7.85L-23.79,22.96z"/>
					<path d="M-4.9-2.95c0,0-3.35,17.98-22.25,31.39l-0.23,0.4C-8.48,15.43-5.12-2.55-5.12-2.55L-4.9-2.95z"/>
					<path d="M-14.5,5.55c0,0-22.09,4.91-22.09,2.17l-0.23,0.39c0,2.74,21.33-2.13,21.33-2.13L-14.5,5.55z"/>
					<path d="M-3.98-4.17c0,0-7.01-3.05-12.19,1.22c0,0-4.88,4.57-18.59,3.96l-0.23,0.4C-21.28,2.02-16.4-2.55-16.4-2.55
						c5.18-4.27,12.19-1.22,12.19-1.22L-3.98-4.17z"/>
					<path d="M-1.85-6.61c0,0-8.53-3.35-13.41,0c0,0-7.62,7.31-17.07,4.27l-0.23,0.4c9.45,3.05,17.07-4.27,17.07-4.27
						c4.88-3.35,13.41,0,13.41,0L-1.85-6.61z"/>
					<path d="M-15.26-6.61c0,0-0.61-4.57-7.01-4.57c0,0-14.32,0.3-15.85-4.57l-0.23,0.4c1.52,4.88,15.85,4.57,15.85,4.57
						c6.4,0,7.01,4.57,7.01,4.57L-15.26-6.61z"/>
					<path d="M-1.24-7.83c0,0-18.29-11.28-23.16-7.31c0,0-5.18,2.44-13.1-6.1l-0.23,0.4c7.92,8.53,13.11,6.1,13.11,6.1
						c4.88-3.96,23.16,7.31,23.16,7.31L-1.24-7.83z"/>
					<path d="M-22.57-15.75c0,0-10.97-8.84-10.97-10.97l-0.23,0.4c0,2.13,11.05,10.67,11.05,10.67L-22.57-15.75z"/>
					<path d="M-16.67-15.05c0,0-14.44-10.15-14.13-13.8l-0.23,0.4c-0.3,3.66,14.13,13.55,14.13,13.55L-16.67-15.05z"/>
					<path d="M-11.3-13.22c0,0-14.93-15.94-14.93-18.07l-0.23,0.4c0,2.13,14.93,18.07,14.93,18.07L-11.3-13.22z"/>
					<path d="M-5.2-9.96c0,0-6.1-10.67-9.14-11.58c0,0-9.75-10.97-8.54-11.89l-0.23,0.4c-1.22,0.91,8.54,11.89,8.54,11.89
						c3.05,0.91,9.14,11.58,9.14,11.58L-5.2-9.96z"/>
					<path d="M-3.37-9.04c0,0-1.22-8.84-3.96-10.67c0,0-5.18-6.71-5.49-9.75l-0.23,0.4c0.3,3.05,5.49,9.75,5.49,9.75
						C-4.82-17.49-3.6-8.65-3.6-8.65L-3.37-9.04z"/>
					<path d="M-15.87-8c0,0-9.14-1.35-11.58,0.78c0,0-5.49,2.44-8.23-0.3l-0.23,0.4c2.74,2.74,8.23,0.3,8.23,0.3
						c2.44-2.13,10.67-0.91,10.67-0.91L-15.87-8z"/>
				</g>
				<g>
					<path class="st4" d="M-38.08,28.41c0.24,0,0.43,0.77,0.43,1.73c0,0.95-0.19,1.72-0.43,1.72c-0.24,0-0.43-0.77-0.43-1.72
						C-38.51,29.19-38.32,28.41-38.08,28.41z"/>
					<path class="st4" d="M-35.64,20.74c0.48,0,0.86,0.38,0.86,0.86c0,0.48-0.39,0.86-0.86,0.86c-0.48,0-0.86-0.38-0.86-0.86
						C-36.5,21.13-36.12,20.74-35.64,20.74z"/>
					<path class="st4" d="M-33.05,13.79c0.83,0,1.51,0.29,1.51,0.65c0,0.36-0.68,0.65-1.51,0.65c-0.83,0-1.51-0.29-1.51-0.65
						C-34.56,14.09-33.88,13.79-33.05,13.79z"/>
					<path class="st4" d="M-32.44,3.68c0.6,0,1.08,0.38,1.08,0.86c0,0.48-0.48,0.86-1.08,0.86s-1.08-0.38-1.08-0.86
						C-33.52,4.06-33.03,3.68-32.44,3.68z"/>
					<path class="st4" d="M-32.13-5.84c0.59,0,1.08,0.48,1.08,1.08c0,0.59-0.48,1.08-1.08,1.08c-0.6,0-1.08-0.48-1.08-1.08
						C-33.21-5.35-32.73-5.84-32.13-5.84z"/>
					<path class="st4" d="M-35.28-14.14c0.12,0,0.22,1.06,0.22,2.37c0,1.31-0.1,2.37-0.22,2.37c-0.12,0-0.21-1.06-0.21-2.37
						C-35.5-13.08-35.4-14.14-35.28-14.14z"/>
					<path class="st4" d="M-35.03-20.1c0.48,0,0.86,0.39,0.86,0.86c0,0.48-0.39,0.86-0.86,0.86c-0.47,0-0.86-0.38-0.86-0.86
						C-35.89-19.71-35.5-20.1-35.03-20.1z"/>
					<path class="st4" d="M-31.13-28.3c-0.04,0-0.29,1.39-0.29,1.96c0,0.57,0.24,0.09,0.29,0.09c0.05,0,0.08-0.46,0.08-1.03
						C-31.04-27.84-31.08-28.3-31.13-28.3z"/>
					<path class="st4" d="M-20.16-33.71c0.12,0,0.22,0.48,0.22,1.08c0,0.59-0.1,1.08-0.22,1.08c-0.12,0-0.21-0.48-0.21-1.08
						C-20.37-33.23-20.28-33.71-20.16-33.71z"/>
					<path class="st4" d="M-33.05,32.45c0.6,0,1.08,0.19,1.08,0.43c0,0.24-0.48,0.43-1.08,0.43c-0.6,0-1.08-0.19-1.08-0.43
						C-34.13,32.64-33.64,32.45-33.05,32.45z"/>
					<path class="st4" d="M-19.41,22.43c0.36,0,0.64,0.58,0.64,1.29c0,0.72-0.29,1.29-0.64,1.29c-0.36,0-0.65-0.58-0.65-1.29
						C-20.06,23-19.77,22.43-19.41,22.43z"/>
					<path class="st4" d="M-15.07,17.39c0.12,0,0.22,0.39,0.22,0.86c0,0.47-0.1,0.86-0.22,0.86c-0.12,0-0.21-0.39-0.21-0.86
						C-15.28,17.78-15.19,17.39-15.07,17.39z"/>
					<path class="st4" d="M-26.8-29.91c0.48,0,0.86,0.48,0.86,1.08c0,0.59-0.39,1.08-0.86,1.08c-0.47,0-0.86-0.48-0.86-1.08
						C-27.66-29.43-27.28-29.91-26.8-29.91z"/>
				</g>
				<path d="M-0.96-2.25c0,0-4.05,19.74-29.34,34.98c0,0-12.11,7.08-7.53-10.9c0,0,3.05-5.48,2.13-13.1c0,0-1.52-8.23,2.74-10.06
					c0,0,3.35-2.44,0-4.57c0,0-6.7-5.79-4.27-14.32c0,0,0-3.96,2.74-4.27c0,0-0.61-2.74,1.83-3.35c0,0,0-2.44,2.74-2.13
					c0,0,0.3-3.96,4.57-3.36c0,0,0.91-1.52,3.35-1.22c0,0,2.74-2.74,5.49-0.61c0,0,15.24,10.97,14.02,17.98
					C-2.49-17.18,2.08-11.7-0.96-2.25l-0.91,1.58C1.17-10.12-3.4-15.6-3.4-15.6c1.22-7.01-14.02-17.98-14.02-17.98
					c-2.74-2.13-5.49,0.61-5.49,0.61c-2.44-0.3-3.35,1.22-3.35,1.22c-4.27-0.61-4.57,3.35-4.57,3.35c-2.74-0.31-2.74,2.13-2.74,2.13
					c-2.44,0.61-1.83,3.35-1.83,3.35c-2.74,0.31-3.09,4.17-3.09,4.17c-2.44,8.53,4.62,14.42,4.62,14.42c3.35,2.13,0,4.57,0,4.57
					c-4.27,1.83-2.74,10.06-2.74,10.06c0.91,7.62-2.13,13.11-2.13,13.11c-4.57,17.98,7.62,11.28,7.62,11.28
					C-5.84,19.45-1.88-0.67-1.88-0.67L-0.96-2.25z"/>
			</g>
			<g>
				<path class="st1" d="M1.7-1.04c0,0,3.26,18.63,29.52,35.28c0,0,11.85,6.76,7.28-11.23c0,0-3.14-5.6-1.79-13.16
					c0,0,0.94-7.99-2.74-10.06c0,0-3.35-2.44,0-4.57c0,0,6.7-5.79,4.27-14.32c0,0-0.53-3.89-2.74-4.27c0,0-0.08-2.71-1.83-3.35
					c0,0-0.59-2.33-2.74-2.13c0,0-0.93-4.02-4.57-3.35c0,0-0.91-1.52-3.35-1.22c0,0-2.74-2.74-5.48-0.61
					c0,0-15.24,10.97-14.02,17.98C3.49-16.04-1.35-10.49,1.7-1.04z"/>
				<path class="st2" d="M1.66-1.59c0,0,5.33,24.38,34.21,36.72c0,0,6.08-1.85,2.88-11.91c0,0-3-4.09-2.2-12.32
					c0,0,1.71-9.66-3.71-12.11c0,0-2.34-1.71,2.8-6.17c0,0,7.39-11.92-0.15-15.98c0,0-0.59-4.83-4.42-5.45c0,0-2-4.91-4.86-3.31
					c0,0-1.73-2.46-3.1-1.09c0,0-2.5-4.05-7.07,0.06c0,0,29.66,10.69,13.66,27.15c0,0-3.66,2.74,0.91,9.6c0,0,2.28,3.2,1.37,8.69
					c0,0-0.46,10.06,4.12,14.63c0,0,2.74,5.94-2.74,4.57C33.35,31.47,17.66,29.5,1.66-1.59z"/>
				<path class="st3" d="M2.65-4.87c0,0,2.38,12.07,17.55,21.21c0,0,7.31,4.02,4.57-6.77c0,0-1.83-3.29-1.28-7.86
					c0,0,0.91-4.94-1.65-6.03c0,0-2.01-1.46,0-2.74c0,0,4.02-3.48,2.56-8.6c0,0,0-2.38-1.64-2.56c0,0,0.37-1.65-1.1-2.01
					c0,0,0-1.46-1.65-1.28c0,0-0.18-2.38-2.74-2.01c0,0-0.55-0.92-2.01-0.73c0,0-1.65-1.65-3.29-0.37c0,0-9.14,6.58-8.41,10.79
					C3.56-13.83,0.82-10.54,2.65-4.87z"/>
				<g>
					<path d="M0.93-6.79c0,0,17.07,13.1,18.89,19.81c0,0,4.57,18.59,16.76,22.25l0.23,0.4C24.63,32,20.06,13.41,20.06,13.41
						C18.23,6.71,1.16-6.4,1.16-6.4L0.93-6.79z"/>
					<path d="M19.01,11.02c0,0,15.14,4.74,16.97,2.3l0.23,0.4c-1.83,2.44-16.46-2.13-16.46-2.13L19.01,11.02z"/>
					<path d="M21.35,16.98c0,0,10.51,5.79,16.3,3.96l0.23,0.4c-5.79,1.83-16.3-3.96-16.3-3.96L21.35,16.98z"/>
					<path d="M23.79,22.77c0,0,11.88,10.36,15.85,7.92v0.33c-3.96,2.44-15.62-7.85-15.62-7.85L23.79,22.77z"/>
					<path d="M4.89-3.13c0,0,3.35,17.98,22.25,31.39l0.23,0.4C8.48,15.24,5.12-2.74,5.12-2.74L4.89-3.13z"/>
					<path d="M14.5,5.36c0,0,22.1,4.91,22.1,2.17l0.23,0.4c0,2.74-21.33-2.13-21.33-2.13L14.5,5.36z"/>
					<path d="M3.98-4.35c0,0,7.01-3.05,12.19,1.22c0,0,4.88,4.57,18.59,3.96l0.23,0.4C21.28,1.83,16.4-2.74,16.4-2.74
						C11.22-7.01,4.21-3.96,4.21-3.96L3.98-4.35z"/>
					<path d="M1.85-6.79c0,0,8.53-3.35,13.41,0c0,0,7.62,7.31,17.07,4.27l0.23,0.39C23.11,0.92,15.49-6.4,15.49-6.4
						c-4.88-3.35-13.41,0-13.41,0L1.85-6.79z"/>
					<path d="M15.26-6.79c0,0,0.61-4.57,7.01-4.57c0,0,14.33,0.3,15.85-4.57l0.23,0.4c-1.53,4.88-15.85,4.57-15.85,4.57
						c-6.4,0-7.01,4.57-7.01,4.57L15.26-6.79z"/>
					<path d="M1.24-8.01c0,0,18.29-11.27,23.16-7.31c0,0,5.18,2.44,13.11-6.1l0.23,0.4c-7.92,8.54-13.1,6.1-13.1,6.1
						C19.75-18.89,1.47-7.62,1.47-7.62L1.24-8.01z"/>
					<path d="M22.57-15.94c0,0,10.97-8.84,10.97-10.97l0.23,0.4c0,2.13-11.05,10.67-11.05,10.67L22.57-15.94z"/>
					<path d="M16.67-15.24c0,0,14.44-10.15,14.13-13.81l0.23,0.4c0.3,3.66-14.14,13.55-14.14,13.55L16.67-15.24z"/>
					<path d="M11.3-13.41c0,0,14.93-15.94,14.93-18.07l0.23,0.4c0,2.13-14.93,18.07-14.93,18.07L11.3-13.41z"/>
					<path d="M5.2-10.14c0,0,6.1-10.67,9.14-11.58c0,0,9.75-10.97,8.53-11.89l0.23,0.4c1.22,0.91-8.53,11.88-8.53,11.88
						C11.52-20.42,5.43-9.75,5.43-9.75L5.2-10.14z"/>
					<path d="M3.37-9.23c0,0,1.22-8.84,3.96-10.67c0,0,5.18-6.71,5.49-9.75l0.23,0.39c-0.3,3.05-5.49,9.75-5.49,9.75
						C4.82-17.67,3.6-8.84,3.6-8.84L3.37-9.23z"/>
					<path d="M15.87-8.18c0,0,9.14-1.35,11.58,0.78c0,0,5.49,2.44,8.23-0.3l0.23,0.4c-2.74,2.74-8.23,0.3-8.23,0.3
						c-2.44-2.13-10.67-0.91-10.67-0.91L15.87-8.18z"/>
				</g>
				<g>
					<path class="st4" d="M38.08,28.23c-0.24,0-0.43,0.77-0.43,1.72c0,0.95,0.19,1.72,0.43,1.72c0.24,0,0.43-0.77,0.43-1.72
						C38.51,29,38.32,28.23,38.08,28.23z"/>
					<path class="st4" d="M35.64,20.56c-0.47,0-0.86,0.39-0.86,0.86c0,0.47,0.39,0.86,0.86,0.86c0.48,0,0.86-0.39,0.86-0.86
						C36.5,20.94,36.11,20.56,35.64,20.56z"/>
					<path class="st4" d="M33.05,13.61c-0.83,0-1.51,0.29-1.51,0.65c0,0.36,0.68,0.65,1.51,0.65c0.83,0,1.51-0.29,1.51-0.65
						C34.56,13.9,33.88,13.61,33.05,13.61z"/>
					<path class="st4" d="M32.44,3.49c-0.6,0-1.08,0.38-1.08,0.86c0,0.48,0.48,0.86,1.08,0.86c0.59,0,1.08-0.38,1.08-0.86
						C33.52,3.88,33.03,3.49,32.44,3.49z"/>
					<path class="st4" d="M32.13-6.02c-0.59,0-1.08,0.48-1.08,1.08c0,0.59,0.48,1.08,1.08,1.08c0.6,0,1.08-0.48,1.08-1.08
						C33.21-5.54,32.73-6.02,32.13-6.02z"/>
					<path class="st4" d="M35.28-14.32c-0.12,0-0.21,1.06-0.21,2.37c0,1.31,0.1,2.37,0.21,2.37c0.12,0,0.22-1.06,0.22-2.37
						C35.5-13.26,35.4-14.32,35.28-14.32z"/>
					<path class="st4" d="M35.03-20.28c-0.48,0-0.86,0.38-0.86,0.86c0,0.48,0.39,0.86,0.86,0.86c0.48,0,0.86-0.38,0.86-0.86
						C35.89-19.9,35.51-20.28,35.03-20.28z"/>
					<path class="st4" d="M31.13-28.48c0.04,0,0.29,1.39,0.29,1.96c0,0.57-0.24,0.09-0.29,0.09c-0.04,0-0.08-0.46-0.08-1.02
						C31.04-28.02,31.08-28.48,31.13-28.48z"/>
					<path class="st4" d="M20.16-33.9c-0.12,0-0.21,0.48-0.21,1.08c0,0.59,0.1,1.08,0.21,1.08c0.12,0,0.21-0.48,0.21-1.08
						C20.37-33.42,20.28-33.9,20.16-33.9z"/>
					<path class="st4" d="M33.05,32.26c-0.59,0-1.08,0.19-1.08,0.43s0.48,0.43,1.08,0.43c0.6,0,1.08-0.19,1.08-0.43
						S33.64,32.26,33.05,32.26z"/>
					<path class="st4" d="M19.41,22.24c-0.36,0-0.65,0.58-0.65,1.29c0,0.72,0.29,1.29,0.65,1.29c0.36,0,0.65-0.58,0.65-1.29
						C20.06,22.82,19.77,22.24,19.41,22.24z"/>
					<path class="st4" d="M15.07,17.2c-0.12,0-0.22,0.39-0.22,0.86c0,0.48,0.1,0.86,0.22,0.86c0.12,0,0.21-0.38,0.21-0.86
						C15.28,17.59,15.19,17.2,15.07,17.2z"/>
					<path class="st4" d="M26.8-30.1c-0.47,0-0.86,0.48-0.86,1.08c0,0.59,0.39,1.08,0.86,1.08c0.48,0,0.86-0.49,0.86-1.08
						C27.66-29.62,27.28-30.1,26.8-30.1z"/>
				</g>
				<path d="M0.96-2.44c0,0,4.05,19.74,29.34,34.98c0,0,12.11,7.08,7.53-10.9c0,0-3.05-5.48-2.14-13.1c0,0,1.53-8.23-2.74-10.06
					c0,0-3.35-2.44,0-4.57c0,0,6.7-5.79,4.27-14.33c0,0,0-3.96-2.74-4.27c0,0,0.61-2.74-1.83-3.35c0,0,0-2.44-2.74-2.13
					c0,0-0.3-3.96-4.57-3.35c0,0-0.91-1.52-3.35-1.22c0,0-2.74-2.74-5.48-0.61c0,0-15.24,10.97-14.02,17.98
					C2.49-17.37-2.08-11.88,0.96-2.44l0.91,1.58C-1.17-10.3,3.4-15.79,3.4-15.79C2.18-22.8,17.42-33.77,17.42-33.77
					c2.74-2.13,5.49,0.61,5.49,0.61c2.44-0.3,3.35,1.22,3.35,1.22c4.27-0.61,4.57,3.35,4.57,3.35c2.74-0.31,2.74,2.13,2.74,2.13
					c2.44,0.61,1.83,3.35,1.83,3.35c2.74,0.31,3.1,4.18,3.1,4.18c2.44,8.53-4.62,14.41-4.62,14.41c-3.35,2.13,0,4.57,0,4.57
					c4.27,1.83,2.74,10.06,2.74,10.06c-0.92,7.62,2.13,13.11,2.13,13.11c4.57,17.98-7.62,11.28-7.62,11.28
					C5.84,19.26,1.88-0.85,1.88-0.85L0.96-2.44z"/>
			</g>
			<path d="M0.42,4.26C0.5,5.55,0.46,6.86,0.88,8.1c0.25,0.74,0.55,1.42,0.94,2.11c1.22,2.16,3.36,3.31,5.24,4.73
				c0.04,0.03,0.05,0.09,0.02,0.12C7.06,15.11,7,15.12,6.96,15.09C5,13.7,2.84,12.53,1.58,10.32C0.5,8.44,0.12,6.36,0.38,4.26
				c0-0.01,0.01-0.02,0.02-0.02S0.42,4.25,0.42,4.26L0.42,4.26z"/>
			<path d="M-0.35,4.25c-0.08,1.29-0.04,2.6-0.46,3.84c-0.25,0.74-0.55,1.42-0.94,2.11c-1.22,2.16-3.36,3.31-5.24,4.73
				c-0.04,0.03-0.05,0.08-0.02,0.12c0.03,0.04,0.09,0.05,0.12,0.02c1.97-1.39,4.12-2.56,5.39-4.77c1.08-1.88,1.45-3.96,1.2-6.06
				c0-0.01-0.01-0.02-0.02-0.02C-0.34,4.23-0.35,4.24-0.35,4.25L-0.35,4.25z"/>
		</g>
	</g>
</symbol>
<use xlink:href="#Mariposa"  width="79.56" height="72.07" x="-39.78" y="-36.16" transform="matrix(2.4254 0 0 -2.4254 118.062 99.6914)" style="overflow:visible;"/>
</svg>
